<?xml version="1.0" encoding="UTF-8" standalone="no"?>
<!-- Created with Inkscape (http://www.inkscape.org/) -->
<svg xmlns:rdf="http://www.w3.org/1999/02/22-rdf-syntax-ns#" xmlns="http://www.w3.org/2000/svg" height="1553.6" width="1088.9" version="1.1" xmlns:cc="http://creativecommons.org/ns#" xmlns:dc="http://purl.org/dc/elements/1.1/">
 <defs>
  <marker id="a" refY="0" refX="0" orient="auto" overflow="visible">
   <path stroke-linejoin="round" d="m8.7186 4.0337-10.926-4.0177 10.926-4.0177c-1.7455 2.3721-1.7355 5.6174 0 8.0354z" fill-rule="evenodd" transform="scale(-.6)" stroke="#f00" stroke-width=".625" fill="#f00"/>
  </marker>
  <marker id="b" refY="0" refX="0" overflow="visible" orient="auto">
   <path stroke-linejoin="round" d="m8.7186 4.0337-10.926-4.0177 10.926-4.0177c-1.7455 2.3721-1.7355 5.6174 0 8.0354z" fill-rule="evenodd" transform="scale(-.6)" stroke="#f00" stroke-width=".625" fill="#f00"/>
  </marker>
  <marker id="c" refY="0" refX="0" orient="auto" overflow="visible">
   <path stroke-linejoin="round" d="m8.7186 4.0337-10.926-4.0177 10.926-4.0177c-1.7455 2.3721-1.7355 5.6174 0 8.0354z" fill-rule="evenodd" transform="scale(-.6)" stroke="#f00" stroke-width=".625" fill="#f00"/>
  </marker>
  <marker id="d" refY="0" refX="0" overflow="visible" orient="auto">
   <path stroke-linejoin="round" d="m8.7186 4.0337-10.926-4.0177 10.926-4.0177c-1.7455 2.3721-1.7355 5.6174 0 8.0354z" fill-rule="evenodd" transform="scale(-.6)" stroke="#f00" stroke-width=".625" fill="#f00"/>
  </marker>
  <marker id="e" refY="0" refX="0" orient="auto" overflow="visible">
   <path stroke-linejoin="round" d="m8.7186 4.0337-10.926-4.0177 10.926-4.0177c-1.7455 2.3721-1.7355 5.6174 0 8.0354z" fill-rule="evenodd" transform="scale(-.6)" stroke="#f00" stroke-width=".625" fill="#f00"/>
  </marker>
 </defs>
 <metadata>
  <rdf:RDF>
   <cc:Work rdf:about="">
    <dc:format>image/svg+xml</dc:format>
    <dc:type rdf:resource="http://purl.org/dc/dcmitype/StillImage"/>
    <dc:title/>
   </cc:Work>
  </rdf:RDF>
 </metadata>
 <g transform="translate(199.63 258.76)">
  <path d="m204.65 1225.9c-3.4561-3.203-3.3384-5.7566 0.51266-11.119l3.1587-4.3984-1.7056-3.7651c-3.0549-6.7436-4.643-8.0679-10.112-8.4321-4.9934-0.3326-4.9998-0.3291-4.835 2.667 0.0908 1.65 0.47965 4.2319 0.8642 5.7376 1.0666 4.176-2.0185 4.8587-5.2233 1.1558-2.1338-2.4654-2.4247-3.5778-1.9668-7.5203l0.53748-4.6269-4.6883-0.6539c-13.56-1.8-13.19-1.9-13.19 1.5 0 2.1442 1.0336 4.0765 3.5 6.5429 2.181 2.181 3.5 4.4668 3.5 6.0655 0 6.2959-6.295 13.473-9.2369 10.531-0.91025-0.9103-0.81165-1.8139 0.428-3.9229 2.785-4.7379 2.5611-6.5963-1.1993-9.9566-3.1964-2.8564-3.4918-3.5907-3.4918-8.6819 0-4.635-0.37516-5.8245-2.2518-7.1396-2.3876-1.6731-4.2482-1.232-4.2482 1.0071 0 0.7432-1.8261 3.6614-4.0581 6.4851-3.1692 4.0093-3.9906 5.836-3.75 8.3397 0.25827 2.6878-0.0605 3.2583-1.9721 3.5295-2.3431 0.3324-6.1217-3.098-6.1865-5.6163-0.0183-0.7111 1.9994-3.466 4.4838-6.122s5.2145-6.8759 6.0669-9.3775c1.5233-4.4707 1.5037-4.6182-1.15-8.6281-1.4849-2.2438-3.0066-4.0796-3.3817-4.0796-0.37505 0-1.492-1.6875-2.482-3.75l-1.8001-3.75-2.2494 5.0706c-2.1599 4.869-6.497 9.4294-8.9677 9.4294-3.1469 0-8.4588 12.023-10.383 23.5-0.63785 3.8052-0.8634 4.0157-4.6306 4.3229-5.8993 0.481-7.2022-1.8289-4.0673-7.211 2.6372-4.5276 5.815-16.68 4.6686-17.854-0.39855-0.408-2.1621-0.1992-3.9189 0.4639-2.3692 0.8943-3.4853 0.9147-4.3211 0.079-2.6915-2.6915 5.1324-6.9993 9.6162-5.2945 3.6378 1.3831 4.8171 1.2551 7.0442-0.7646 1.0662-0.9669 3.1761-2.5522 4.6886-3.523 2.0886-1.3406 2.75-2.5594 2.75-5.0677 0-2.2079 0.80854-4.0623 2.4392-5.5942 2.2299-2.0949 2.4161-2.9465 2.1696-9.9243-0.27838-7.881-2.9235-15.553-7.6516-22.193-2.3716-3.3306-4.2699-3.0341-3.3761 0.5272 0.44039 1.7546 0.0994 2.4996-1.3554 2.9614-1.0691 0.3393-2.6572 0.3432-3.529 0.01-1.1125-0.4269-1.5457-0.061-1.4528 1.2273 0.0728 1.0096-1.1898 5.1464-2.8057 9.1929-2.3168 5.8017-4.5077 9.0307-10.362 15.271-4.083 4.3525-8.239 9.1417-9.2356 10.643-0.99659 1.501-2.3164 3.4178-2.9328 4.2596-0.88246 1.205-0.092 3.6511 3.716 11.5 4.6032 9.4878 4.8386 10.38 4.8713 18.47 0.0409 10.129-0.16035 11-2.5433 11-2.6111 0-3.2836-1.5871-3.5812-8.4514-0.26391-6.088-2.391-12.825-4.4513-14.098-0.61095-0.3776-2.5571-3.7044-4.3248-7.3929-2.8217-5.8878-3.4558-6.5985-5.1953-5.8223-1.1198 0.4996-3.0099 3.4735-4.3466 6.839-2.1936 5.5227-2.2718 6.3446-1.0775 11.323 0.70829 2.9525 0.97705 5.871 0.59723 6.4855-0.37982 0.6146-2.2286 1.1174-4.1085 1.1174-5.2408 0-6.7459-3.0021-5.5653-11.101 0.51312-3.5197 1.6119-7.9744 2.4417-9.8994 2.1412-4.9672 8.2342-10.492 14.736-13.361 3.067-1.3533 6.3275-3.6069 7.2455-5.008 0.91798-1.401 4.385-5.2972 7.7046-8.6583 4.4474-4.503 7.1928-8.5385 10.434-15.337 2.4191-5.0742 4.6993-10.425 5.0671-11.89 0.36777-1.4654 1.2995-3.1878 2.0706-3.8277 2.1-1.7428 1.6942-5.2674-0.96234-8.3589-2.275-2.6476-2.4759-2.6937-5.3228-1.2215-1.6272 0.8414-3.5434 2.2346-4.2582 3.0959-0.71478 0.8612-2.3685 1.5659-3.6748 1.5659-3.0767 0-11.693 6.1968-13.192 9.4881-0.63954 1.4036-2.2516 2.966-3.5825 3.472-1.6125 0.6131-2.6564 2.0242-3.1292 4.2299-0.39025 1.8205-2.0069 5.9437-3.5926 9.1626-1.5857 3.219-2.8831 6.6908-2.8831 7.7152 0 3.3615-6.1778 9.0528-13.705 12.626-4.4987 2.1354-7.2951 4.0654-7.2951 5.035 0 0.8647 1.1219 3.8671 2.493 6.6719 2.2669 4.6372 2.4173 5.7271 1.6586 12.017-0.68617 5.6884-1.2956 7.2877-3.4296 9-1.971 1.5815-2.6706 3.1647-2.9086 6.5823-0.26085 3.7457-0.6792 4.5521-2.4957 4.8107-5.0413 0.7177-5.4731-8.9086-0.60204-13.423 4.0865-3.7872 4.2131-10.685 0.32958-17.963-1.674-3.2-3.044-6.4-3.044-7.2 0-0.8317-0.59377-1.2383-1.3722-0.9396-0.75468 0.2896-3.4547 0.8388-6 1.2205-4.1831 0.6273-4.6278 0.9521-4.6278 3.3804 0 1.4776-0.46429 3.1508-1.0318 3.7183-1.7795 1.7795-1.5312 10.577 0.41124 14.568 0.99039 2.0349 1.5086 4.1724 1.1516 4.75-1.0594 1.7142-4.0855 1.2001-6.1111-1.0381-2.2538-2.4905-3.259-15.066-1.5875-19.861 0.57646-1.6537 0.71929-3.2099 0.31738-3.4583-1.1624-0.7184-7.0853 2.4968-10.037 5.4486-2.5489 2.5489-2.7145 3.2865-2.937 13.08-0.29645 13.052-0.59812 14.082-4.0116 13.687-2.4531-0.2837-2.7038-0.7438-3.1642-5.8081-0.275-3.025-0.95-5.4511-1.5-5.3913-2.9766 0.3235-5.2352 1.8539-7.2305 4.8993-2.6648 4.0673-9.0901 6.3504-12.938 4.5973-3.92-1.7861-2.7293-3.5381 5.6683-8.3402 5.8872-3.3665 11.889-9.3862 13.725-13.765 0.80688-1.925 2.4353-4.5476 3.6188-5.828 3.7882-4.0985 13.099-9.0987 18.049-9.6929 2.5862-0.3104 5.8353-0.9952 7.2201-1.5218 1.3849-0.5265 4.9206-0.9573 7.8571-0.9573 10.567 0 24.276-6.4714 26.138-12.339 0.34683-1.0927 1.305-3.601 2.1294-5.5739 0.82433-1.9729 1.3927-3.5871 1.263-3.5871-1.2396 0 4.0256-8.9299 7.6154-12.916 9.7305-10.804 12.107-12.813 18.892-15.97 8.6863-4.0412 11.899-6.96 14.554-13.224 1.1402-2.69 2.9235-6.691 3.9629-8.891s2.0906-6.475 2.3361-9.5c0.24545-3.025 1.1649-10.883 2.0432-17.462 0.87833-6.5791 1.5903-16.254 1.5821-21.5-0.0194-12.491-1.6962-37.334-2.9048-43.038-0.90677-4.2793-1.3415-11.452-2.6362-43.5-0.31109-7.7-1.2435-19.168-2.072-25.485-1.8574-14.161-1.828-39.989 0.0609-53.486 0.77189-5.5158 1.6745-15.654 2.0059-22.529 0.887-18.404 2.3502-34.903 4.4342-50 0.4935-3.575 3.4606-13.925 6.5935-23s5.9971-17.756 6.3648-19.291c0.36772-1.5353 0.37514-8.2853 0.0165-15-0.7528-14.094-3.1742-22.557-10.277-35.921-2.4229-4.5584-5.4022-11.213-6.6207-14.788s-2.5459-6.95-2.9497-7.5c-1.8714-2.549-5.1092-15.025-6.4884-25.002-1.0796-7.8092-1.4706-18.257-1.3473-36 0.18393-26.483 0.80021-31.985 6.7763-60.498 1.8318-8.74 2.0932-12.295 1.5594-21.208-0.3527-5.8896-0.15748-15.79 0.43382-22 0.97275-10.217 2.8102-32.058 3.558-42.292 0.16074-2.2 0.40533-8.916 0.54352-14.924l0.25126-10.924-3.503-3.0756c-10.628-9.3312-15.075-10.699-26.034-8.0096-0.4125 0.10125-1.5652 0.24034-2.5614 0.30909-0.99629 0.0688-2.7792 1.0266-3.962 2.1285-3.2808 3.0552-12.076 7.9951-14.237 7.9951-1.8087 0-3.7265 0.71915-13.49 5.0586-5.8112 2.5828-10.924 3.0207-16.282 1.3946-2.5946-0.78736-5.6458-1.4364-6.7804-1.4424-2.6847-0.0141-6.8247-4.4039-9.2293-9.7863-1.4498-3.2453-3.3315-5.1537-7.809-7.9201-5.7771-3.5694-6.0911-3.6404-15.213-3.4429-11.71 0.25361-13.536 1.2069-12.714 6.6384 1.6931 11.187 1.7079 13.106 0.11145 14.431-0.87097 0.72284-1.5836 2.1592-1.5836 3.1918 0 1.0327-0.82188 2.6994-1.8264 3.704-1.0045 1.0045-2.0826 2.4941-2.3958 3.3101-0.31314 0.81604-3.2908 2.3077-6.6171 3.3148-6.2328 1.8871-6.4724 1.8752-21.422-1.0711-4.488-0.88448-8.0492-6.5558-8.8254-14.055-0.44993-4.347-1.3173-7.1458-2.6742-8.6295-1.1046-1.2078-3.4422-5.121-5.1947-8.696s-4.108-8.075-5.2345-10-2.0072-3.5-1.9571-3.5-0.14801-0.91436-0.44025-2.0319c-0.29225-1.1176-1.8532-2.9176-3.4689-4-1.6156-1.0824-2.9388-2.2744-2.9404-2.6488-0.007-1.6015-4.6908-7.7708-6.7758-8.9243-2.7182-1.5039-2.4168-3.2707 0.63438-3.7189 3.352-0.49242 16.35 13.474 20.648 22.186 1.8618 3.7739 5.6699 10.342 8.4625 14.596 3.7264 5.676 5.1146 8.7728 5.2169 11.638 0.1543 4.3204 2.1465 9.8756 3.9389 10.983 2.0691 1.2788 14.28 2.9383 17.828 2.423 2.6276-0.38158 4.1128-1.4605 6.1969-4.5019 2.5992-3.793 2.7168-4.46 2.271-12.889-0.25852-4.8892-0.20477-9.7252 0.11943-10.747 0.86153-2.7144 8.5425-6.8638 12.706-6.8638 5.0304 0 8.3776-4.1632 9.3032-11.571 0.8293-6.6375 0.0458-8.4501-6.6892-15.474-5.6363-5.8786-8.3634-6.2822-16.485-2.4398-5.0867 2.4064-5.6273 2.4631-12.563 1.3177-5.3364-0.88128-7.8258-1.8206-9.4396-3.5619-3.2947-3.555-5.2566-8.3459-5.8471-14.278-0.2917-2.9304-0.64225-5.3937-0.779-5.4739s-1.5468-1.1296-3.1335-2.332c-2.3748-1.7995-4.2313-2.189-10.5-2.2025-9.5679-0.0207-14.022-2.3096-19.359-9.948-3.1702-4.5378-3.5725-5.6482-2.452-6.7687 1.8217-1.8217 3.6447-0.86817 7.1954 3.7638 5.0877 6.637 6.6693 7.2745 18.302 7.3774 5.7143 0.0505 10.598-0.2448 10.852-0.65634 0.49067-0.7944-3.7509-6.4064-9.8384-13.017-2.4584-2.6697-3.9079-5.3714-4.3555-8.118-0.369-2.2641-1.5803-5.1062-2.6919-6.3157-2.1536-2.3434-1.8033-5.3009 0.62787-5.3009 2.2788 0 7.3084 6.7895 7.9476 10.729 0.35466 2.1855 1.8453 4.7903 3.8669 6.757 9.6382 9.3767 11.461 12.632 10.514 18.777-0.31865 2.0689 0.043 3.8523 1.0021 4.9416 1.1796 1.3397 1.2769 2.3463 0.45493 4.7042-1.2469 3.5769-0.0778 8.4705 2.8621 11.98 3.7316 4.4542 13.87 4.8653 20.693 0.83915 2.5308-1.4932 4.4812-1.8503 7.9628-1.4578 4.0604 0.45766 5.2596 1.2189 10.043 6.375 2.9875 3.2204 6.1361 6.8935 6.9969 8.1624 1.9385 2.8576 1.8084 11.388-0.2633 17.26-1.9159 5.4303-1.8696 5.9334 0.54571 5.9334 1.1122 0 5.6439 1.821 10.07 4.0466 6.4716 3.2538 8.3211 4.6995 9.4408 7.3793 2.52 6.0312 6.0765 9.2764 11.723 10.696 8.0043 2.0132 9.2382 1.7946 27.34-4.8425 2.803-1.0277 6.9987-3.3752 9.3236-5.2166 5.9695-4.7279 11.139-6.3093 22.354-6.8375 9.2325-0.43486 9.9905-0.31684 13.691 2.1318 3.5119 2.324 3.97 2.4137 4.4296 0.86725 0.28197-0.94868 0.77245-15 1.0899-31.225 0.31749-16.225 1.0151-32.65 1.5503-36.5 1.8017-12.961 2.8556-28.908 2.8962-43.822 0.0222-8.152 0.25023-15.161 0.50675-15.576 0.25651-0.41505-0.8619-5.3374-2.4854-10.939-1.62-5.58-2.95-12.2-2.95-14.68 0-3.4501-0.53461-4.9873-2.25-6.4699-4.877-4.215-9.471-8.8175-14.248-14.274-2.7489-3.1402-5.7084-5.7095-6.5768-5.7095-0.86832 0-3.7942-2.0676-6.502-4.5947s-6.7296-5.3906-8.9374-6.3634c-2.2078-0.97276-4.6633-2.5508-5.4567-3.5068-1.2838-1.5469-11.479-8.5352-12.452-8.5352-0.21131 0-2.0298-1.4569-4.0411-3.2376-4.3538-3.2138-7.9341-4.962-8.9567-5.5131-7.5923-6.0806-8.7266-5.685-15.508-13.984-4.6094-7.4982-6.0811-12.827-7.5666-27.398-0.49974-4.9017 0.0147-7.3965 3.9608-19.208 2.494-7.46 4.535-14.21 4.535-14.99 0-1.7533-7.6823-8.937-11.877-11.106-1.711-0.8848-4.1376-1.3471-5.4034-1.0294-1.2637 0.31717-3.5384 0.10496-5.0548-0.47158-3.0604-1.1636-4.7686-0.38254-12.368 5.6551-2.3118 1.8367-5.5188 3.8926-7.1267 4.5686-2.8831 1.21-10.17 8.99-10.17 10.86 0 1.8422-4.232 10.367-6.2241 12.538-1.2122 1.321-2.1901 4.0942-2.4684 7-0.25345 2.6468-0.84821 5.9373-1.3217 7.3123-0.47348 1.375-1.0951 6.325-1.3814 11s-0.81789 9.9486-1.1813 11.719c-0.36343 1.7705-0.32777 4.0205 0.0792 5 0.40702 0.97948 0.65805 4.0316 0.55784 6.7824-0.15785 4.3334 0.23793 5.469 2.9624 8.5 2.9045 3.2313 3.0966 3.8802 2.5159 8.4984-0.56827 4.519-2.4481 7.5-4.7297 7.5-0.44484 0-0.80883-1.8911-0.80883-4.2024 0-3.3039-0.63399-4.8565-2.9652-7.2618-2.2698-2.3418-3.118-4.3465-3.6168-8.5476-0.35833-3.0185-0.85301-5.7048-1.0993-5.9695-0.24629-0.26468-1.8086 0.29976-3.4718 1.2543-2.8584 1.6405-4.8469 1.5688-4.8469-0.17463 0-0.43093 1.5962-1.6419 3.5471-2.691 5.6541-3.0405 6.3205-4.8892 7.3483-20.387 0.51478-7.7616 1.4486-14.73 2.0751-15.485 0.62651-0.7549 1.1903-3.6198 1.2529-6.3664 0.0919-4.0328 0.62838-5.4796 2.788-7.5179 1.4708-1.3882 3.6508-5.2024 4.8444-8.476s2.8393-6.5073 3.6572-7.186c2.1298-1.7676 1.8567-2.599-1.263-3.844-7.0115-2.7981-11.472-3.0848-17.117-1.1005-3.0074 1.057-6.434 2.8294-7.6147 3.9386s-2.4803 2.0167-2.8879 2.0167c-1.614 0-14.63 6.5251-14.63 7.3342 0 0.47493-0.59813 2.2815-1.3292 4.0146-1.993 4.72-4.672 13.23-4.672 14.83 0 1.3749-0.96979 2.8526-5.8752 8.9521-1.9853 2.4686-2.2882 3.725-1.8454 7.6541 0.29142 2.5854 0.10692 5.491-0.40999 6.4569-1.1173 2.0877-4.1721 2.3013-5.7484 0.40198-1.7904-2.1573-1.6221-11.952 0.25459-14.816 2.0245-3.0898 1.3385-3.8301-3.5489-3.8301-4.3516 0-7.5192-2.8242-9.2922-8.2851-1.0146-3.1249-1.1837-3.2051-6.0392-2.8637-3.3204 0.23344-5.6124 1.0063-6.8355 2.305-2.3206 2.4639-8.9724 2.2461-9.4562-0.30964-0.47409-2.504 12.775-8.8466 18.48-8.8466 6.1558 0 9.9859 2.2005 10.848 6.2326 0.90615 4.2372 2.2036 5.7674 4.8902 5.7674 1.1977 0 2.6423 0.46475 3.2103 1.0328 2.0538 2.0538 4.226-0.31521 7.1998-7.8517 4.1822-10.599 4.3758-14.443 0.86665-17.203-3.5872-2.8217-5.2758-6.2359-6.584-13.312-0.58909-3.1867-1.981-6.9508-3.0932-8.3647-1.111-1.41-2.021-3.15-2.021-3.86 0-4.4481-11.199-11.205-16.808-10.141-8.2633 1.5671-13.624 5.1108-14.522 9.5993-0.78623 3.9311-4.9352 6.2714-12.144 6.8501-7.0295 0.56425-12.526-1.4844-12.526-4.6687 0-3.2126 4.8699-4.0678 9.4963-1.6676 2.3554 1.222 7.1574 1.2659 8.3471 0.0762 0.21365-0.21365 0.69109-1.8682 1.061-3.6768 0.81841-4.0016 5.9253-7.7219 14.612-10.645 6.7127-2.2586 7.52-3.7666 5.5451-10.358-1.5359-5.1264-3.9695-6.3024-8.7885-4.2468-7.4808 3.191-11.513 2.0931-25.273-6.8819-7.9015-5.1537-8.1863-5.4649-7.0104-7.662 1.8129-3.3875 4.7052-3.4167 8.743-0.0884 4.0104 3.3057 7.9053 4.1736 6.8932 1.536-1.2942-3.3727-2.8907-14.334-2.3086-15.851 0.94446-2.4612 4.5563-2.0159 5.1426 0.63404 0.2738 1.2375 1.4074 6.1365 2.519 10.887 1.1117 4.7502 2.0212 9.3772 2.0212 10.282 0 2.4315 3.9546 3.5652 7.4858 2.1461 2.8773-1.1563 2.9937-1.452 3.202-8.1325 0.11892-3.8129 0.37785-11.208 0.57539-16.433 0.19755-5.225-0.0371-10.316-0.52144-11.314-0.98308-2.025 0.63275-4.6861 2.8454-4.6861 2.2459 0 3.7613 4.1578 4.0198 11.029 0.13507 3.5909 0.35672 6.9659 0.49257 7.5s-0.10847 3.5637-0.54294 6.7324c-0.87135 6.3552 0.11018 9.9504 4.2163 15.444 2.6513 3.547 5.227 11.115 5.227 15.359 0 2.2743 0.91441 3.2617 5.3264 5.7516 5.3429 3.0154 7.6914 5.6731 10.767 12.185 3.9954 8.4591 4.9066 10.966 4.9066 13.497 0 3.3423 3.5479 8.5032 5.8456 8.5032 0.94017 0 2.822 0.75078 4.1819 1.6684s2.1336 1.2912 1.7194 0.83027c-0.41418-0.46097 3.6358-3.0169 9-5.6798 8.1612-4.0514 11.185-5.005 18.528-5.8429 7.0457-0.80394 9.3123-0.72689 11.5 0.39091 6.77 3.459 8.6045 3.1728 17.47-2.7263 9.4808-6.3083 13.198-7.952 15.985-7.0674 1.6849 0.53478 1.866 0.28776 1.2639-1.7245-0.38651-1.2918-3.0083-7.0197-5.8261-12.729-5.7695-11.69-6.166-14.72-3.2755-25.01 3.0384-10.81 1.2021-15.982-7.6776-21.617-2.2802-1.4471-3.9144-1.6367-9-1.0441-3.4176 0.39823-8.6889 0.92024-11.714 1.16-3.025 0.23979-6.0456 0.63077-6.7125 0.86885-1.6404 0.58565-7.2214 11.442-10.288 20.012-3.1903 8.9168-5.0721 10.019-14.53 8.5078-10.6-1.6934-14.274-5.4322-10.301-10.483 2.4493-3.1138 3.6305-3.1687 4.7513-0.22079 1.3199 3.4716 3.4778 4.7934 8.1808 5.0112l4.2705 0.19772 1.1848-5.7993c0.82349-4.0306 2.6468-7.9197 5.9787-12.752 2.6366-3.824 4.6073-7.1196 4.3792-7.3236-0.22804-0.20393-1.8729-1.1124-3.6552-2.0188-3.6194-1.8406-6.7745-5.9639-5.7866-7.5624 0.9665-1.5638 5.508-1.2575 6.1497 0.4148 0.30789 0.80232 3.7174 2.4553 7.5767 3.6733 6.9946 2.2075 7.0404 2.2087 14.409 0.37384 4.0656-1.0124 7.3843-2.3279 7.3749-2.9233-0.0246-1.5624-4.7074-9.0956-10.483-16.864-4.3054-5.7908-6.04-7.2284-12.486-10.348-7.45-3.6049-7.53-3.6189-16.5-2.8807-8.6085 0.70848-14.528 0.90467-19.124 0.63382-1.1606-0.0684-3.6772-1.6023-5.5926-3.4087-2.7903-2.6316-3.6448-4.3706-4.2995-8.75-1.0072-6.738-0.85869-6.1429-2.024-8.108-1.2607-2.126-7.8685-4.8576-11.751-4.8576-2.2373 0-4.0307 1.0491-6.8378 4-3.2028 3.3668-4.4388 4-7.8082 4-3.2618 0-4.925-0.78696-8.9818-4.25-5.1206-4.371-5.8136-6.2684-2.9486-8.0725 1.305-0.82176 2.6823-0.16977 6.6388 3.1428 2.7457 2.2988 5.408 4.1797 5.9163 4.1797 0.50827 0 2.2202-1.3528 3.8044-3.0063 2.9421-3.0709 7.8205-4.9781 12.759-4.9881 5.2434-0.0106 9.2331-11.688 5.1509-15.076-2.5822-2.143-7.5678-9.8746-6.9804-10.825 0.29854-0.48306-0.12724-1.4344-0.94618-2.114-0.819-0.675-1.489-2.724-1.489-4.549 0-1.8252-0.45-3.5966-1-3.9366-1.2289-0.75948-1.3012-10.476-0.0922-12.385 0.69781-1.1018 1.1194-0.9325 2.0617 0.82814 0.65147 1.2173 0.93896 2.8531 0.63887 3.6351-0.30009 0.78202-0.10974 1.4219 0.42299 1.4219 0.53274 0 0.96862 0.70295 0.96862 1.5621 0 5.4904 7.2075 19.813 10.632 21.127 2.8743 1.103 4.3085 5.6314 3.2607 10.295-0.62857 2.7976-0.63193 5.3241-0.009 7.1097 0.53109 1.5235 0.74301 3.6212 0.47095 4.6616-0.27207 1.0404 0.48372 3.5499 1.6795 5.5766 1.1958 2.0268 1.9377 4.3014 1.6486 5.0547-0.28909 0.75334-0.0208 1.8745 0.59624 2.4916 0.61703 0.61703 0.78142 1.1219 0.36532 1.1219-1.2342 0 2.4254 5.5619 4.5206 6.8704 1.4207 0.88724 6.0156 1.0238 17.384 0.51666 14.261-0.638 15.451-0.837 15.451-2.588 0-2.0806-4.162-6.4004-7.0497-7.3169-2.5011-0.79382-4.3186-6.7736-3.4362-11.306 1.655-8.4997 0.97569-14.408-2.4351-21.179-2.1614-4.2906-3.457-8.5394-3.8117-12.5-0.61653-6.8832-5.2516-18.133-8.5542-20.762-1.2172-0.96882-4.013-2.63-6.213-3.6915-4.8852-2.3572-6.479-3.676-9.1208-7.547-2.7925-4.0919-5.8021-16.621-4.2264-17.594 1.8672-1.154 3.6622 0.0426 5.0532 3.3686 4.3234 10.338 6.3433 13.229 10.917 15.624l4.6228 2.4211 6.0439-5.9095c10.519-10.285 11.704-20.594 4.5097-39.214-4.3656-11.298-7.1412-14.948-16.824-22.123-5.6967-4.2212-11.221-9.8176-14.475-14.663-0.825-1.2285-2.5009-3.564-3.7243-5.1898-2.1854-2.9045-2.1909-2.9864-0.3125-4.6863 1.8289-1.6552 2.0438-1.5951 4.9576 1.3857 1.6752 1.7137 3.7535 4.3455 4.6185 5.8484 2.067 3.5914 7.5474 8.4683 14.961 13.313l6 3.9212 0.66539-3.7509c0.36597-2.063 1.045-6.0009 1.509-8.7509 0.69256-4.105 1.2447-5.0572 3.0846-5.3196 1.9755-0.28169 2.241 0.11927 2.241 3.384 0 2.0369-0.52163 5.4446-1.1592 7.5725-0.89107 2.9741-0.87896 4.484 0.0523 6.528 0.98204 2.1553 0.94661 2.9239-0.18702 4.0575-1.1981 1.1981-0.61599 3.2893 4.0605 14.588 4.3712 10.561 5.5119 14.477 5.7243 19.648 0.14592 3.5523-0.0974 7.1523-0.54065 8-0.44328 0.8477-1.5504 3.9889-2.4603 6.9804-1.2527 4.1186-2.9698 6.7337-7.0722 10.771-2.9798 2.9326-5.4178 5.8976-5.4178 6.589 0 0.69141 1.4916 4.3944 3.3147 8.2289s3.9173 10.347 4.6538 14.472c0.73652 4.125 1.7199 7.9275 2.1853 8.45s0.84618 1.5399 0.84618 2.2609c0 0.72099 1.0125 3.4435 2.25 6.05 2.3267 4.9006 2.7101 11.069 1.2414 19.973-0.62824 3.8086-0.42528 4.461 2.0221 6.5 9.6015 7.9993 9.9198 8.4024 9.6616 12.236-0.20698 3.0734 0.3201 4.2249 3.1408 6.8617 4.4823 4.1902 15.774 19.189 18.007 23.919 0.97384 2.0625 2.1444 3.75 2.6012 3.75 1.4822 0 3.05-2.6127 3.6578-6.0953 0.32679-1.8726 1.2295-5.1013 2.0059-7.1749 0.77648-2.0736 1.4118-3.9224 1.4118-4.1084s-2.4647-1.9747-5.4772-3.9748c-7.7503-5.1459-11.666-14.07-11.666-26.588 0-5.1566-0.23953-5.6938-3.9584-8.8769-4.2029-3.5975-6.7222-8.2973-6.521-12.165 0.20938-4.0254 2.512-3.4367 4.4992 1.1503 2.1577 4.9806 7.3401 8.728 9.5425 6.9002 0.72964-0.60555 2.0507-3.6817 2.9357-6.8359 2.9922-10.664 1.9-45.604-1.603-51.28-1.6581-2.6864-7.9369-2.3963-8.3366 0.38509-0.14515 1.0099-1.423 3.5878-2.8397 5.7286s-2.6007 4.2395-2.6312 4.6638c-0.11388 1.5878-6.004 5.3963-8.6304 5.5803-3.5167 0.24643-6.0725-4.2507-4.6747-8.2255 1.2484-3.5497 5.988-3.7602 5.6072-0.24897-0.44328 4.0874 1.9434 1.8491 5.6803-5.3271 2.9167-5.6012 4.3605-7.2607 7.7804-8.9424 3.9478-1.9413 4.2019-2.3231 4.2458-6.377 0.0257-2.3717-0.63069-6.4217-1.4586-9-0.82789-2.5784-1.8782-8.9629-2.334-14.188-0.92205-10.569 0.20511-18.31 4.4331-30.443 1.6236-4.6595 2.0883-7.2745 1.4128-7.95-0.55362-0.55366-1.0066-2.9539-1.0066-5.3339 0-3.2184-1.1528-6.4771-4.4986-12.717-3.14-5.8562-4.1215-8.5421-3.25-8.8938 0.81624-0.32942 0.70299-0.53126-0.32707-0.58287-3.6184-0.18129-8.3456-8.5385-7.7511-13.703 0.23595-2.0498 1.0928-3.1069 3.082-3.8024 3.4685-1.2127 5.765 0.49234 3.8198 2.8361-1.639 1.9749-0.71625 4.5862 3.9994 11.318 2.1337 3.046 3.6674 5.8812 3.4083 6.3005-0.25914 0.41931 0.0887 0.99081 0.77308 1.27 2.0568 0.83913 6.4621 10.792 7.6405 17.262 1.4613 8.0232 1.3949 10.066-0.41687 12.831-5.012 7.6492-5.9011 39.509-1.3384 47.956 0.54884 1.0162 0.90382 3.4912 0.78885 5.5-0.23861 4.169 0.93141 9.3591 2.3146 10.267 2.018 1.3251 3.8961 15.75 3.9561 30.385 0.0663 16.18-1.1973 24.824-4.4978 30.769l-2.0926 3.7693 2.3452 1.7307c1.2898 0.9519 5.5401 2.8849 9.445 4.2956 7.0684 2.5535 7.1219 2.6008 12.1 10.714 2.75 4.4818 5.2841 8.1651 5.6313 8.1852 1.2646 0.0731 7.095-6.5601 8.9772-10.214 1.4455-2.8057 2.5565-3.75 4.4117-3.75 4.3926 0 2.8048 5.8789-3.1575 11.691-1.1754 1.1458-2.5254 2.7211-3 3.5006-0.9342 1.5345-10.295 5.8084-12.722 5.8084-0.81871 0-2.5353 1.3847-3.8146 3.0771s-3.3817 4.231-4.672 5.6414c-1.5391 1.695-2.6182 4.509-3.1405 8.205-0.4376 3.096-2.0277 7.836-3.5336 10.533l-2.738 4.9042 5.58 5.0755c5.49 4.9937 7.6628 9.2727 7.147 14.076-0.82895 7.719-1.6835 12.08-2.9705 15.16-1.7089 4.0899-1.1761 7.2474 2.106 12.48 1.2559 2.0022 3.2584 5.7147 4.4502 8.25 2.0952 4.4574 3.9465 6.0025 3.9465 3.2938 0-0.72368 2.0376-3.3534 4.5281-5.8438 5.0302-5.0302 10.876-7.1799 24.074-8.8533 7.3733-0.93485 10.746-2.2122 13.166-4.987 2.0676-2.37 0.87364-12.552-2.2629-19.297-2.4375-5.2422-2.6606-6.6782-2.3299-15 0.38737-9.749 1.6816-13.634 7.031-21.103 3.101-4.3299 3.4704-6.1261 1.4214-6.9124-0.75448-0.28953-2.352-2.5513-3.55-5.0261s-2.8658-5.0703-3.7062-5.7678c-0.84039-0.69745-2.6409-3.4643-4.0011-6.1486-1.927-3.8029-2.3448-5.8039-1.892-9.0628l0.58112-4.1824-6.78-4.9981c-7.11-5.2412-16.676-12.93-20.372-16.373-1.198-1.1162-3.471-2.3132-5.051-2.6603-1.581-0.3471-3.375-1.5688-3.989-2.7148-1.2407-2.3183-1.3592-10.158-0.18203-12.041 0.41669-0.66679 0.82697-1.6623 0.91174-2.2123 0.0848-0.55 0.6573-3.475 1.2723-6.5 0.8767-4.3122 0.82882-6.4611-0.22167-9.9502-1.4914-4.9534-0.50409-12.536 3.2613-25.05 1.0758-3.575 2.1843-8.1963 2.4633-10.27 0.60621-4.5035-1.6308-12.594-4.9252-17.813-3.9012-6.1799-8.6278-16.818-7.9556-17.905 1.4469-2.3412 4.2589-0.89006 6.0736 3.1343 1.0284 2.2806 2.3401 4.6431 2.9148 5.25 4.5024 4.7543 9.4205 14.914 10.126 20.918 0.62187 5.2912-0.88777 14.938-2.6978 17.24-1.1146 1.4174-2.751 15.466-1.7279 14.834 0.44341-0.27405 0.70405 1.4391 0.5792 3.8069-0.25554 4.8463 0.20619 5.1605 5.4922 3.7371 5.6838-1.5305 8.2904-6.9159 10.79-22.292 0.88162-5.4231 1.9068-8.4463 3.3061-9.75 4.3978-4.0971 6.7956-1.2073 4.2589 5.1327-0.88427 2.21-1.6126 5.6966-1.6186 7.748s-0.68096 5.9388-1.5 8.6387c-1.7868 5.89-1.8649 7.5911-0.34871 7.5911 2.2 0 9.8974 4.3864 9.5421 5.4376-0.4194 1.2409-5.5268 1.5768-7.6299 0.50179-0.79606-0.40691-2.513-0.33469-3.8155 0.1605-1.4393 0.54723-3.0668 0.52645-4.1494-0.053-0.97973-0.52434-2.1878-0.60393-2.6845-0.17687-0.49676 0.42707-3.4372 1.606-6.5343 2.6199-4.7608 1.5585-5.8751 2.3972-7.21 5.4267-0.8684 1.9708-1.7094 6.6916-1.8689 10.491l-0.29002 6.9072 4.1473 2.5928c2.281 1.426 7.231 5.1066 11 8.1791 3.77 3.0679 7.979 6.176 9.354 6.9024 1.375 0.72635 3.274 2.2033 4.22 3.2821 4.2519 4.8488 6.0855-1.4671 3.5787-12.327-1.1408-4.9423-1.0858-5.2976 1.0929-7.0618 3.6905-2.9884 6.1148-1.0034 5.9755 4.8928-0.0613 2.5963 0.22365 6.8282 0.63327 9.4042 0.61582 3.8727 0.37727 5.2783-1.3778 8.118-1.639 2.653-2.122 5.043-2.122 10.505 0 6.7039 0.19476 7.305 3.75 11.574 2.0625 2.4767 4.4952 5.5415 5.406 6.8108l1.656 2.3078 3.0018-2.8487c1.651-1.5668 4.2176-5.558 5.7036-8.8693 3.2069-7.1459 3.8834-17.1 1.7717-26.068-0.74933-3.1823-1.0714-6.257-0.71558-6.8327 0.35577-0.57565-0.67974-2.9219-2.3011-5.2139s-4.5393-7.9923-6.4843-12.667c-4.6648-11.213-5.0234-12.161-5.4621-14.448-0.20551-1.0712-1.0719-2.7192-1.9254-3.6623-2.1459-2.3711-2.3663-4.9856-0.6433-7.6299 1.2946-1.9867 1.2798-2.3088-0.13055-2.85-1.092-0.41904-1.3331-1.127-0.76967-2.2602 0.82184-1.653 1.5447-8.8952 1.2626-12.65-0.0827-1.1-0.18404-3.1236-0.22533-4.4969-0.0413-1.3733-0.54204-2.7855-1.1128-3.1382-1.3468-0.83232-0.0856-2.8649 1.7776-2.8649 0.79254 0 1.5095 0.7875 1.5933 1.75 0.22426 2.5765 0.38395 3.3178 1.7543 8.1433 0.6862 2.4163 0.87543 4.6663 0.4205 5-0.45492 0.33368-0.89157 1.9567-0.97034 3.6067-0.72035 15.091-0.91352 13.947 3.6529 21.633l4.3056 7.2474 4.2116-4.8547c2.5287-2.9148 4.9111-7.0738 5.9622-10.408 0.96283-3.0545 2.3819-6.517 3.1534-7.6946 1.7536-2.6763 0.97683-4.9568-3.2094-9.4228-3.1114-3.3193-3.9708-6.0968-4.7187-15.25-0.0786-0.9625-0.44777-1.75-0.82029-1.75s-0.9686-1.1606-1.3246-2.5791c-0.35602-1.4185-2.4298-4.4342-4.6084-6.7014-3.342-3.476-3.961-4.783-3.961-8.354 0-4.7656-1.1621-8.4309-3.511-11.074-4.364-4.91-9.489-11.88-9.489-12.91 0-1.2361-6.7431-11.495-8.1872-12.455-1.224-0.81-5.813-13.77-5.813-16.41 0-2.5102-2.4428-7.8177-4.2708-9.2792-0.67609-0.54056-2.3448-1.3259-3.7082-1.7453-7.0744-2.1758-15.985-14.022-16.329-21.709-0.16105-3.5913 0.12747-4.3171 1.8084-4.5491 1.5748-0.2173 2.8013 1.271 5.7687 7 4.6345 8.9474 6.9855 11.572 13.233 14.776 3.341 1.7131 5.5716 3.759 7.0866 6.5 1.216 2.2 2.5935 4 3.0612 4 1.9109 0 7.9094-16.862 9.8897-27.801 0.62041-3.4269 2.4478-6.4804 4.3046-7.1929 1.099-0.42173 1.2701 0.35285 0.82387 3.7307-0.30973 2.3446-0.85206 6.6119-1.2052 9.4828l-0.64205 5.2199 4.5882-1.5634c2.7476-0.93619 5.4184-2.7293 6.6578-4.4699 2.5589-3.5936 5.9334-3.924 5.9334-0.58083 0 4.013-7.436 9.0808-15.13 10.311-3.75 0.59964-4.6229 1.6058-5.521 6.3633-0.25956 1.375-1.8546 4.6582-3.5446 7.2961-4.1556 6.4866-3.5976 11.864 2.1253 20.48 2.2359 3.3662 4.6119 7.3813 5.28 8.9224 0.66807 1.5411 3.6113 6.0344 6.5404 9.985 4.2113 5.68 5.5424 8.4128 6.3609 13.06 1.2527 7.1115 1.6408 7.7665 5.1044 8.6139 2.5187 0.61622 2.9181 0.2525 5.5-5.0087 2.4661-5.0252 3.2727-5.8148 7.0623-6.9133 7.6802-2.2264 15.423-9.3231 17.385-15.935 0.65288-2.2 1.5044-4.45 1.8922-5 0.38784-0.55 1.2395-5.05 1.8927-10 0.65312-4.95 1.3908-10.401 1.6393-12.113 0.54125-3.7289 3.4773-6.6835 5.7681-5.8044 2.0054 0.76956 2.007 0.81565 0.15073 4.4053-0.82163 1.5889-1.4387 3.929-1.3713 5.2003 0.121 2.2818-0.72947 7.737-1.7114 10.977-1.2507 4.1274 2.2037 2.4826 8.555-4.0735 3.7789-3.9008 7.5797-7.0923 8.4461-7.0923 1.7916 0 2.1061 1.554 0.51372 2.5381-0.58393 0.36089-1.4894 1.781-2.012 3.1558-0.5227 1.3748-1.8449 2.7336-2.9383 3.0195-1.0934 0.28592-1.988 1.112-1.988 1.8358 0 0.72379-0.7875 1.5671-1.75 1.8739-3.5404 1.1288-10.443 8.8504-13.3 14.877-1.616 3.4097-3.5034 6.8744-4.1943 7.6994-2.1601 2.5794-8.2919 6.8048-12.555 8.6518-4.0315 1.7466-4.8423 2.7634-7.1859 9.0124-0.73382 1.9567-2.3302 3.6379-4.1831 4.4054-2.7777 1.1506-2.9437 1.5035-2.2747 4.8358 0.39694 1.9771 0.79973 4.373 0.89511 5.3243 0.0954 0.95129 0.48257 2.0388 0.86044 2.4167 0.37787 0.37787 0.68704 1.6632 0.68704 2.8563 0 1.2592 1.6484 3.6491 3.929 5.6964 5.1646 4.6363 6.1182 9.1842 3.28 15.642-1.1262 2.5625-2.7941 6.6684-3.7063 9.1242-0.91224 2.4558-3.2186 6.1918-5.1253 8.3023-5.7433 6.3571-6.9227 12.2-3.3774 16.733 1.0755 1.375 1.9655 3.2875 1.9778 4.25 0.0122 0.9625 0.47224 1.75 1.0222 1.75 0.55 0 1 1.71 1 3.8s0.47332 4.2733 1.0518 4.8518c0.57851 0.57851 1.2571 5.8642 1.5081 11.746 0.38055 8.9199 0.14058 11.474-1.4465 15.398-1.0465 2.5873-2.4496 6.1542-3.1179 7.9264-0.66834 1.7723-2.2902 4.4723-3.6041 6s-2.3895 3.3981-2.3902 4.1564c-0.00067 0.75828-1.7273 3.9083-3.8369 7-8.4276 12.351-10.026 22.471-5.558 35.197 1.4335 4.0834 2.8471 10.025 3.1415 13.203 0.29432 3.1781 0.91221 6.0115 1.3731 6.2963 0.46088 0.28484 2.5975-0.009 4.748-0.65359 4.1704-1.2495 4.614-2.2131 5.718-12.421 1.1524-10.656 7.7529-24.369 14.036-29.161 6.202-4.7305 7.1584-17.313 2.2695-29.862-3.0067-7.7174-3.0878-8.3354-2.4904-18.977 0.79667-14.191 2.8041-25.085 5.8473-31.733 2.0968-4.5799 3.6056-6.1032 11.061-11.167 4.7481-3.2251 9.2518-6.817 10.008-7.982 0.75653-1.165 1.6992-4.5883 2.0948-7.6072 0.39561-3.019 1.5836-6.8874 2.6399-8.5966s1.6259-3.4023 1.2657-3.7625c-0.98932-0.98932 1.5988-5.5403 6.5087-11.445 5.9312-7.1331 14.67-11.659 20.752-10.747 4.1976 0.62947 4.4042 0.52064 11.22-5.9092 3.8191-3.6027 7.4194-6.5504 8.0008-6.5504 1.8891 0 4.1998 3.0827 4.1998 5.6028 0 2.7583-2.5356 4.2616-4.2672 2.53-1.58-1.599-2.73-1.422-2.73 0.412 0 1.8645-5.4993 7.1766-9 8.6936-1.375 0.59585-6.0572 1.1888-10.405 1.3176-6.032 0.17878-8.1168 0.61314-8.7997 1.8334-0.49218 0.87948-1.7991 1.5991-2.9042 1.5991s-1.7361 0.44204-1.4022 0.9823c0.3339 0.54027-0.53954 2.6697-1.941 4.7321-4.2462 6.2489-3.4311 6.9015 7.9519 6.366 5.2898-0.24887 23.529 2.5485 24.781 3.8007 0.54144 0.54144 0.69178 1.7471 0.33408 2.6792-0.57931 1.5097-1.7681 1.6135-10.883 0.95086-10.865-0.7899-25.565-0.73292-26.919 0.10433-0.44717 0.27636-0.81304 2.507-0.81304 4.957 0 7.5543-4.0307 12.969-15.577 20.927-1.596 1.1-4.5201 3.6287-6.4979 5.6193-3.6914 3.7153-3.7253 3.8182-7.0444 21.381-1.9549 10.344-1.457 19.437 1.4296 26.108 3.6757 8.495 4.6738 16.346 3.2689 25.715l-0.70137 4.6771h4.6109c2.536 0 5.9115-0.67257 7.5012-1.4946 4.0476-2.0931 11.959-10.619 11.987-12.918 0.0128-1.0517 0.7835-4.3241 1.7128-7.2721 1.5741-4.9936 1.577-5.6832 0.0431-10.088-1.9393-5.5686-2.6563-9.5626-3.1825-17.728-0.41404-6.4254 1.5333-12.51 6.2406-19.5 5.661-8.406 7.5913-5.2847 3.3233 5.374-2.594 6.4781-2.9479 8.4247-2.4698 13.584 0.79629 8.594 2.7385 15.492 4.455 15.822 0.80809 0.15563 2.9974-1.0814 4.8651-2.7488 1.8677-1.6675 3.7159-3.0318 4.1071-3.0318 1.2676 0 4.1091-8.3366 5.0256-14.745 1.2516-8.7508 6.0124-17.226 11.176-19.896 2.6237-1.3568 3.1505-1.3642 4.4518-0.0628 1.3014 1.3014 1.0661 1.9332-1.988 5.34-4.3958 4.9033-6.3082 8.6971-7.2404 14.364-1.2377 7.5237-4.3188 12.581-13.037 21.398-6.6746 6.7501-8.4636 9.195-8.9755 12.266-0.35163 2.1097-0.88877 4.5108-1.1936 5.3358-0.30488 0.825-0.68914 2.5128-0.85393 3.7506s-2.5719 4.8631-5.3491 8.0561c-6.3956 7.3532-15.221 11.217-26.308 11.519l-7.1266 0.19393-3.2588 4.6328c-3.6084 5.1297-5.0487 9.6072-5.7411 17.848-0.25418 3.025-0.7345 6.625-1.0674 8-1.0938 4.518-0.71334 4.7102 13.915 7.0299 14.428 2.2879 27.056 5.2278 28.696 6.6807 1.5184 1.3446 1.9903 1.2926 4.5-0.4963 4.669-3.328 5.8892-5.3464 8.7423-14.462 2.6953-8.6114 2.8764-14.418 0.58154-18.641-0.84605-1.5566 3.2588-17.538 5.0631-19.712 1.9152-2.3077 4.9168-1.7378 4.9168 0.93354 0 1.2833-0.31561 2.649-0.70136 3.0347-0.38575 0.38574-0.78965 2.4191-0.89756 4.5186-0.19554 3.8043-0.17925 3.8211 4.8334 4.9782 5.7256 1.3216 7.1578 0.65911 9.4354-4.3648 0.74801-1.65 1.8891-3.7488 2.5357-4.664 0.9274-1.3125 0.79563-2.5069-0.62387-5.6548-1.5524-3.4427-1.6287-4.5189-0.55532-7.836 2.7747-8.5745 6.4923-13.585 12.974-17.485 2.3968-1.4424 7.1824-1.1778 7.059 0.3902-0.0325 0.4125-0.059 1.2-0.059 1.75s-0.53465 1-1.1881 1c-2.7931 0-7.809 4.7039-9.3675 8.7847-3.8793 10.158-0.8491 16.215 8.1114 16.215 3.2029 0 4.4442 0.4025 4.4442 1.441 0 2.2726-2.0489 2.9851-8.1024 2.8173l-5.6233-0.15586-2.6466 5.4051c-1.4556 2.9728-4.205 6.5937-6.1096 8.0464-3.0566 2.3314-4.0383 2.5622-8.3658 1.967l-4.9028-0.67431-0.67951 5.8267c-1.3412 11.501-7.1767 26.504-11.142 28.646-1.2025 0.64953-3.3483 2.5752-4.7685 4.2793-2.2861 2.7431-2.4688 3.509-1.5934 6.6795 0.6048 2.1904 2.5131 4.8419 4.9137 6.8274 2.1587 1.7854 4.8169 5.3197 5.9071 7.854 2.6483 6.1562 5.3208 8.8431 14.774 14.854 5.3939 3.4296 6.3389 4.742 6.3389 8.8041 0 2.9858-2.7277 7.383-4.5798 7.383-1.856 0-3.4311-3.2423-2.7816-5.7258 0.37996-1.453-0.23705-2.5911-2.1207-3.9117-9.65-6.75-17.53-14.2-17.53-16.55 0-1.0207-2.451-4.2082-5.4468-7.0833-5.4589-5.2392-9.2402-12.774-8.014-15.969 0.82268-2.1439-2.168-4.1042-8.4422-5.5335-5.9965-1.3661-7.1009-1.5682-17.097-3.1284-3.575-0.55799-8.075-1.3962-10-1.8626-8.7549-2.1214-20.992 0.12227-27.232 4.9931-2.7463 2.1434-5.1242 3.0251-9 3.3369-16.894 1.3589-19.279 1.8985-24.33 5.5049-3.8813 2.7715-5.2846 4.5612-6.5586 8.3646-1.8488 5.5195-1.4479 8.5665 1.127 8.5665 0.97513 0 3.5101 1.5646 5.6334 3.4768 3.9761 3.581 5.7916 4.2526 6.8531 2.5351 1.4507-2.3473 10.014-6.2823 17.697-8.1324 12.964-3.1216 22.076-1.7167 37.518 5.7843 2.8643 1.3914 5.7319 3.1612 6.3724 3.933 0.64054 0.77181 1.7946 1.4033 2.5646 1.4033 1.8829 0 11.056 9.6328 13.332 14 1.0032 1.925 3.2188 5.2494 4.9235 7.3875s3.0994 4.665 3.0994 5.6152 0.9 2.8718 2 4.2702 2 3.2438 2 4.1009c0 1.6371 1.3126 4.9034 6.2797 15.626 5.2341 11.299 6.8231 19.686 7.3724 38.913l0.4975 17.413-3.7162 9.0869c-3.9056 9.5501-6.7007 13.587-9.4078 13.587-4.7379 0-5.1805 6.0349-1.5257 20.806 2.1078 8.5188 2.4963 12.425 2.4761 24.899-0.0131 8.1372-0.51643 16.595-1.1185 18.795-1.138 4.1584-1.1912 5.6619-0.49595 14.005 0.2294 2.7527 0.0265 7.4756-0.45083 10.495-0.47736 3.0197-1.1064 11.118-1.3978 17.995-1.0122 23.885-1.4715 36.554-1.6498 45.505-0.0986 4.95-0.53565 9.9825-0.97119 11.183-0.46937 1.2941-0.38284 2.3197 0.21248 2.5182 0.55241 0.18414 1.1199 1.0016 1.261 1.8166 0.90063 5.2004 2.6982 7.3057 4.1845 4.9008 0.36746-0.59456 1.6315-0.84343 2.809-0.55303 1.1775 0.29039 4.3909 0.80515 7.1409 1.1439 2.75 0.33876 6.4961 1.0836 8.3247 1.6552 3.6429 1.1388 25.582 0.21379 28.215-1.1896 0.84677-0.45137 2.1832-2.093 2.9699-3.6481s2.8134-5.0774 4.5038-7.8274c3.4501-5.6128 5.4867-11.69 5.4867-16.373 0-2.7623 4.6065-15.931 8.6292-24.668 0.86289-1.8742 1.5442-7.6287 1.776-15 0.34258-10.894 2.5249-23.349 4.5487-25.959 0.42636-0.55 1.5281-4.825 2.4483-9.5 2.3509-11.944 3.5262-16 4.6363-16h1.4615c0.275 0 0.3875 0.15584 0.25 0.34631-0.1375 0.19046 0.32968 1.0448 1.0382 1.8985 1.0197 1.2286 1.0538 2.8762 0.16387 7.9037-0.61838 3.4933-1.2274 7.0265-1.3535 7.8515-0.39427 2.5805-3.8214 12.447-4.7206 13.59-0.47155 0.59952-0.97451 4.5527-1.1177 8.7848-0.25971 7.6766 0.48967 9.5626 3.8182 9.6099 1.9966 0.0283 10.792-6.4039 16.019-11.715 2.8523-2.8982 5.6274-5.2695 6.1669-5.2695 1.3953 0 8.7656-8.1905 10.651-11.836 0.8716-1.6856 2.178-3.4245 2.9032-3.8644 0.7251-0.43983 2.4126-4.6247 3.75-9.2997 2.9213-10.212 3.0822-20.062 0.4574-28-1.2746-3.8548-2.0772-10.735-2.683-23-0.8895-18.01-0.7572-21.853 1.1368-33 3.1119-18.315 3.9824-23.99 4.4866-29.25 1.7899-8.6418 0 0 2.5938-13.516 0.3455-0.40376 1.6367-3.4341 2.8694-6.7341 1.2326-3.3 2.8375-7.1262 3.5663-8.5026 2.8246-5.3346 8.5678-21.796 9.681-27.747 0.8718-4.661 0.8866-7.839 0.058-12.5-0.6109-3.4375-0.9043-7.825-0.652-9.75 0.2524-1.925 0.052-4.4-0.4459-5.5-4.221-9.3313-6.9366-31.339-5.2269-42.359 1.1903-7.6716 5.8474-18.509 9.7752-22.747 1.2731-1.3737 2.3147-2.7471 2.3147-3.0522 0-0.30501 1.2899-2.1943 2.8665-4.1985 1.5766-2.0041 3.2021-4.7689 3.6123-6.1439 0.9014-3.0213 5.3874-8 7.2083-8 1.6522 0 1.6124 0.85214-0.1871 4-0.786 1.375-1.4451 3.3398-1.4645 4.3662-0.019 1.0264-2.1765 4.6264-4.7933 8s-5.6441 7.8214-6.7274 9.8838c-1.0833 2.0625-2.2721 3.75-2.6418 3.75-1.0942 0-4.1951 15.159-3.9889 19.5 0.3916 8.247 3.1432 26.546 4.6156 30.695 0.8401 2.3675 1.9883 9.2545 2.5516 15.305 0.5633 6.05 1.2125 11.548 1.4428 12.218 0.2302 0.66989-0.038 1.5002-0.5963 1.8452-0.5582 0.34497-0.7603 1.8219-0.4492 3.282 0.3208 1.5056-0.087 3.8946-0.9415 5.5191-2.2101 4.2004-1.8534 5.0153 1.2429 2.8391 4.4706-3.142 22.215-12.203 23.898-12.203 2.8946 0 10.749-9.2422 12.764-15.02 1.0514-3.0143 3.2986-7.5055 4.9938-9.9805 5.1084-7.4583 9.6806-15.173 12.605-21.269 2.7336-5.698 5.599-9.2128 15.611-19.149 4.1281-4.0968 5.2573-5.955 5.823-9.5824 1.0748-6.8917 1.4069-7.6112 4.0749-8.8268l2.4808-1.1303v5.8119c0 3.1965-0.3116 6.1235-0.6924 6.5043-0.3809 0.38084-0.8312 1.6933-1.0007 2.9167-0.3036 2.1912-5.3171 7.271-10.412 10.55-3.0482 1.9617-6.9742 6.6246-8.5666 10.175-5.8361 13.011-9.0255 18.795-13.286 24.097-1.6731 2.082-3.0421 4.2538-3.0421 4.826 0 0.57227-1.7279 4.7805-3.8397 9.3515-4.1443 8.9703-6.9468 11.496-18.869 17.005-2.865 1.3239-5.9714 3.04-6.9031 3.8135-0.9316 0.77354-4.0411 2.7564-6.9099 4.4064-2.8687 1.65-7.5294 5.7-10.357 9-2.8277 3.3-6.1836 7.1754-7.4576 8.6121-2.5476 2.8729-7.476 13.337-6.4922 14.321l-2.763 10.713c-0.3018 0.48829-0.9351 4.3677-1.4073 8.6208-0.4722 4.2532-1.0617 8.633-1.3099 9.733-0.2483 1.1-0.9748 5.375-1.6145 9.5s-1.6422 9.6632-2.2276 12.307c-0.697 3.1473-0.7802 9.0173-0.2411 17 0.4528 6.706 0.686 14.704 0.5181 17.774-0.3043 5.5636 1.818 14.943 3.967 17.533 1.1079 1.3349 0.7735 11.327-0.6531 19.518-0.354 2.0327-0.1996 3.8995 0.3508 4.2396 1.0126 0.62583 12.712-3.8589 18.429-7.0644 1.7727-0.99392 3.9974-2.7071 4.9439-3.8071 1.5854-1.8426 4.27-8.3362 5.336-12.907 0.2446-1.0489 1.5123-3.5239 2.817-5.5s4.3185-6.968 6.6973-11.093 4.6986-7.65 5.155-7.8333c0.4564-0.18334 0.8298-0.79338 0.8298-1.3556 0-0.56227 1.125-2.3593 2.5-3.9934s2.5-3.5236 2.5-4.1989c0-0.67532 1.575-2.9474 3.5-5.049s3.5-4.0596 3.5-4.351c0-0.29146 1.0603-1.9224 2.3561-3.6243 1.2959-1.7019 2.6633-4.0662 3.0388-5.2541 0.3754-1.1878 1.3401-2.7054 2.1438-3.3724 0.8038-0.66701 1.4613-2.0576 1.4613-3.0903s0.5625-1.8844 1.25-1.8929c0.8334-0.0102 0.75-0.33844-0.25-0.98469-0.8826-0.57042-1.0142-0.97568-0.3195-0.98469 0.6492-0.008 1.3242-0.97624 1.5-2.1507 0.1757-1.1745 1.2195-2.716 2.3195-3.4256 1.6799-1.0837 2.2349-1.0315 3.4673 0.32575 1.2896 1.4204 1.2896 1.5478 0 1.0532-0.9866-0.37841-1.5122 0.13256-1.6042 1.5596-0.075 1.1673-1.5379 5.1712-3.25 8.8975-1.7122 3.7263-3.1273 7.1013-3.1447 7.5-0.058 1.3225-4.8515 6.225-6.0871 6.225-0.668 0-0.9432 0.27141-0.6115 0.60314 0.8279 0.82785-7.8058 16.69-9.4483 17.359-1.198 0.48786-1.9934 4.7427-0.8202 4.3869 0.2743-0.0832 2.7487-0.455 5.4987-0.82627 6.4416-0.86966 11.817-2.9296 16.92-6.4843 5.0854-3.5423 10.784-4.7023 12.564-2.5575 1.7324 2.0874-0.34 4.5181-3.8564 4.5231-1.4452 0.002-4.101 0.90205-5.9017 2-1.8008 1.0979-3.8777 1.9963-4.6152 1.9963s-2.5333 0.93788-3.9906 2.0842c-1.4572 1.1463-4.1054 2.2122-5.8848 2.3687-13.002 1.1435-14.337 1.5856-17.596 5.8268-1.7263 2.2462-3.1388 4.7976-3.1388 5.67 0 0.87234-1.125 3.2417-2.5 5.2652s-2.5 4.773-2.5 6.11c0 5.8275-4.8566 12.547-11.5 15.911-4.4031 2.2297-13.653 5.6711-16.29 6.0607-3.4574 0.51084-8.8687 6.1787-10.461 10.957-0.9049 2.7157-2.1059 4.3764-3.3321 4.6074-1.0544 0.19868-3.7171 2.1605-5.9171 4.3596s-5.6653 5.1191-7.7006 6.489c-2.0354 1.3699-4.4139 3.5792-5.2856 4.9096-2.0618 3.1468-15.526 13.094-18.853 13.93-3.1126 0.78121-4.0534 1.8786-5.5309 6.451-0.62202 1.925-2.7127 6.6382-4.646 10.474-2.9075 5.7684-7.0842 19.246-7.9109 25.526-0.20924 1.5897-4.6956 11.85-8.0612 18.437-1.1064 2.1652-2.9116 4.4152-4.0116 5-1.1 0.58484-2.225 1.3335-2.5 1.6636-1.4041 1.6857-5.468 2.9991-7.6137 2.4605-1.3351-0.33508-3.2181-0.18607-4.1845 0.33114-0.9664 0.5172-5.9715 1.1713-11.122 1.4536-7.3679 0.40375-9.8626 0.1874-11.697-1.0144-2.3154-1.5171-7.2765-1.4506-15.074 0.20217-3.6792 0.77987-3.4251-0.51291-5.2992 26.967-0.60015 8.8-1.3552 18.925-1.6779 22.5-0.98029 10.86-1.2005 16.771-1.2908 34.645-0.059 11.681-0.54129 18.693-1.5132 22-4.0378 13.741-5.605 29.744-5.9997 61.264-0.35046 27.99 0.22138 36.004 3.0391 42.591 0.70583 1.65 1.8071 5.25 2.4473 8 0.64019 2.75 1.8598 6.575 2.7102 8.5 2.7241 6.1662 5.0568 11.255 10.085 22 8.2184 17.563 9.5353 23.108 9.6187 40.5 0.064 13.36-0.16259 15.492-2.0723 19.5-1.1793 2.475-2.9137 7.2-3.8543 10.5-0.94058 3.3-2.5127 8.025-3.4935 10.5-0.98086 2.475-2.5758 9.45-3.5444 15.5-0.96853 6.05-2.2566 11.331-2.8623 11.735-0.74988 0.5002-0.68361 0.7396 0.2077 0.75 0.71996 0.01 1.0821 0.3824 0.80478 0.8312-0.27732 0.4487-0.59675 4.8362-0.70984 9.75-0.11309 4.9137-0.66124 9.8294-1.2181 10.924-0.55689 1.0942-1.1196 7.1692-1.2504 13.5-0.13086 6.3308-0.48381 12.636-0.78433 14.01-1.3341 6.1039-2.8042 14.628-2.7596 16 0.14869 4.5786 0.11911 29.008-0.036 29.691-0.10097 0.4447 0.0985 1.9336 0.4433 3.3086 0.8682 3.4624 1.7576 12.904 2.1666 23 0.18937 4.675 0.87257 14.35 1.5182 21.5 0.64565 7.15 1.3686 18.608 1.6066 25.462 0.23801 6.854 0.87506 14.054 1.4157 16 1.3158 4.7361 1.2476 7.0913-0.19653 6.7881-0.65484-0.1375-1.3755 0.6032-1.6014 1.6459-0.30455 1.4055 0.003 1.737 1.1906 1.2814 1.3941-0.535 1.611 0.5788 1.6755 8.6041 0.0408 5.0702 0.40698 11.244 0.81379 13.719 0.52185 3.1749 0.31657 5.3652-0.69713 7.4382-1.1164 2.2829-1.178 3.3526-0.27657 4.796 0.87898 1.4075 0.88129 4.4485 0.01 12.545-0.63287 5.878-1.5504 11.738-2.0389 13.023-0.4885 1.2848-0.60908 3.4481-0.26796 4.8073 0.74374 2.9633-1.3139 10.894-3.2416 12.493-0.75645 0.6278-1.3754 1.8085-1.3754 2.6238s-1.1288 3.7297-2.5084 6.4764c-3.8419 7.649-3.209 9.8899 5.1313 18.17 6.5725 6.5249 9.7939 11.354 16.429 24.627 1.9118 3.8245 4.4106 12.274 5.4367 18.384 6.5856 24.092 31.695 16.23 47.283 23.998 1.663 0.86 5.0652 2.0211 7.5604 2.5803 9.3485 2.095 15.454 5.08 20.611 10.076 2.8162 2.7287 5.6686 4.9618 6.3386 4.9624 1.7659 0 11.718 10.132 11.718 11.928 0 0.4543-0.6084 1.3309-1.352 1.948-1.9368 1.6074-7.4789-0.4459-10.842-4.0168-1.4815-1.5732-3.313-2.8603-4.07-2.8603-0.75701 0-3.2164-1.575-5.4653-3.5-4.8536-4.1545-6.271-4.376-6.271-0.9801 0 1.3859-1.1571 4.3528-2.5713 6.593-2.5462 4.0335-2.5699 4.8181-0.24307 8.0533 0.94002 1.307 0.91499 2.0076-0.11608 3.25-1.85 2.2-4.35 1.9-7.4-0.9zm-87.25-953.59c0.83151-6.1534 4.3675-22.043 9.0469-40.653l4.5767-18.202-2.9991-6.548c-1.6495-3.6014-3.1925-6.548-3.429-6.548-0.67538 0-4.178 11.698-6.1381 20.5-0.97984 4.4-2.8468 12.05-4.1487 17-4.0744 15.49-4.7124 20.239-3.296 24.531 0.69349 2.1013 0.97119 4.5755 0.61711 5.4982-0.40877 1.0652 0.3631 2.8608 2.1145 4.9188 1.517 1.7826 2.8552 3.1766 2.9738 3.0978 0.11-0.08 0.42-1.7 0.68-3.6zm15.888-3.0124c2.4756-5.4208 2.776-7.2434 2.8434-17.25 0.0841-12.485-0.95249-26.446-2.1236-28.603-0.51172-0.94214-1.3514 0.55912-2.5168 4.5-7.6404 25.835-9.0389 34.732-6.5098 41.414 0.72863 1.925 1.4674 4.0625 1.6418 4.75 0.17435 0.6875 1.1225 1.25 2.1069 1.25 1.22 0 2.67-1.93 4.56-6.06zm-26.829-15.439c0.92488-3.85 2.0898-8.35 2.5888-10 2.9299-9.689 9.9503-41.763 11.275-51.512 0.5115-3.7643-0.45803-6.0372-6.3038-14.778-4.2527-6.3589-5.9904-6.715-5.6802-1.1641 0.26545 4.7487-0.14581 5.634-2.8359 6.1047-1.8788 0.32875-2-0.20007-2-8.7287 0-9.91-1.0356-12.421-5.1224-12.421-1.3077 0-2.3938 0.1125-2.4136 0.25s-0.28253 2.95-0.58379 6.25c-0.30127 3.3-0.95754 7.575-1.4584 9.5-1.2796 4.9182-1.248 5 1.9322 5 7.7754 0 14.705 14.153 12.002 24.512-0.57229 2.1932-1.6285 7.083-2.3471 10.866-0.71862 3.7832-1.7172 7.1582-2.2192 7.5-0.50194 0.34185-0.93871 1.5216-0.97061 2.6216s-0.83274 6.275-1.7796 11.5c-0.94691 5.225-1.9579 11.821-2.2467 14.657-0.49748 4.8864-0.37456 5.2369 2.3411 6.6749 1.5764 0.83474 3.1529 1.214 3.5034 0.84279 0.35-0.37 1.39-3.83 2.32-7.68zm6.9901-60.587c-1.0305-1.6674 1.2872-3.5795 2.6667-2.2 1.1539 1.1539 0.43172 3.2871-1.1129 3.2871-0.49 0-1.18-0.49-1.55-1.08zm-17.489 49.587c1.1937-6.05 2.6459-12.897 3.2271-15.215 1.5083-6.0165 0.75048-7.3034-3.8815-6.5915-5.1964 0.79865-5.9607 1.6132-6.6385 7.0752-0.32294 2.6024-0.88557 6.8483-1.2503 9.4352-0.36472 2.587-0.32279 5.512 0.0932 6.5 0.41596 0.98805 0.92742 3.1169 1.1366 4.7307 0.42089 3.2477 3.3038 7.0509 4.4263 5.8394 0.39-0.42 1.689-5.72 2.883-11.77zm-13.023-0.0798c-1.1216-1.3514-0.55771-9.8176 1.0786-16.195 0.71567-2.7894 0.51752-3.4785-1.336-4.6459-1.197-0.75387-3.1979-1.6757-4.4465-2.0486-3.4474-1.0294-5.3917 4.4919-5.0207 14.257l0.29088 7.6561 3.9662 2.2212c2.917 1.6336 4.3091 1.9366 5.2623 1.1455 0.945-0.79 1-1.44 0.202-2.4zm-15.287-13.47c0.18716-3.5466 0.82103-7.6232 1.4086-9.0593 1.1787-2.8809 0.79237-8.986-0.81889-12.94-1.1089-2.7213 0.032-11.649 1.9713-15.427 2.8272-5.5066 9.1071-9.5223 14.891-9.5223 2.1665 0 2.9663-0.54487 3.3027-2.25 0.53157-2.6945 2.7427-18.492 2.9488-21.067 0.17877-2.2342-11.434-8.671-15.656-8.678-2.2824-0.004-3.1025 0.68966-4.4296 3.7454-0.89571 2.0625-1.5157 4.5596-1.3778 5.549 0.41138 2.9516-6.3922 29.274-8.0516 31.151-0.46198 0.5225-0.84531 2.5475-0.85184 4.5-0.007 1.9525-0.70025 6.025-1.5416 9.05-0.84136 3.025-1.7044 6.625-1.9178 8-0.21343 1.375-0.85871 4.525-1.434 7-2.0299 8.7337-1.5969 10.152 4.1866 13.715 2.8703 1.7685 5.626 3.0952 6.1238 2.9483 0.498-0.15 1.058-3.17 1.246-6.72zm10.349-54.32c0-7.9491 3.543-17.799 5.3504-14.875 0.88972 1.4396-2.794 17.557-4.1133 17.996-0.827 0.28-1.237-0.75-1.237-3.12zm-25.8 46.293c0.41317-1.8839 0.94553-4.3721 1.183-5.5293 0.23749-1.1572 1.122-4.7572 1.9656-8 0.84361-3.2428 2.3096-9.0459 3.2578-12.896 0.94821-3.85 2.1384-7.5428 2.6449-8.2062s0.68127-1.594 0.38837-2.0679c-0.2929-0.47393 0.55428-4.9351 1.8826-9.9136 1.3283-4.9786 2.7039-12.486 3.0568-16.682l0.64165-7.6302-3.3604 0.0153c-4.556 0.0208-5.4613 0.8172-6.2344 5.4847-0.91772 5.5408-3.7155 17.584-4.6461 20-0.42375 1.1-1.295 4.7-1.9362 8-0.64117 3.3-1.8133 8.2896-2.6047 11.088-0.791 2.81-1.439 5.79-1.439 6.64 0 0.84681-0.67005 2.0958-1.489 2.7754-0.81894 0.67967-1.2382 1.6416-0.93166 2.1375 0.30653 0.49598-0.0115 3.4438-0.70684 6.5507-1.21 5.4071-1.1702 5.7113 0.93166 7.1069 1.2077 0.80188 2.1958 2.0406 2.1958 2.7527 0 1.3696 1.8415 2.4579 3.4743 2.0533 0.536-0.14 1.313-1.79 1.726-3.67zm41.255-7.3417c1.8646-0.77907 4.1249-2.5379 5.023-3.9086 2.2843-3.4863 1.8009-12.543-0.92928-17.411-1.9778-3.5267-2.497-3.8116-8.2406-4.5228-8.2589-1.0227-10.918 0.0984-12.286 5.1802-2.5994 9.6532-1.4145 13.017 6.5892 18.708 5.433 3.87 5.327 3.85 9.843 1.97zm-8.528-10.17c-0.73265-0.88279-0.65461-1.8762 0.2628-3.3452 1.6693-2.6729 4.102-3.4226 8.456-2.6058 3.1928 0.59897 3.4473 0.90841 3.1631 3.845-0.30353 3.1356-0.4048 3.1951-5.5744 3.2776-3.102 0.06-5.694-0.43-6.308-1.17zm-43.355 5.8376c0.3359-1.5125 1.6806-6.8099 2.9883-11.772 1.3076-4.9621 2.6566-10.812 2.9976-13 0.34101-2.1879 1.04-6.003 1.5532-8.478 0.51327-2.475 1.5682-7.65 2.3444-11.5 0.77614-3.85 1.7185-8.0125 2.0942-9.25 0.60419-1.9903 0.33153-2.25-2.3622-2.25-3.3589 0-6.1881 2.2125-6.1881 4.8393 0 0.93304-1.0906 3.3015-2.4237 5.2632-1.333 1.9617-2.7331 5.2162-3.1113 7.2321-0.3782 2.016-1.0441 3.6654-1.4798 3.6654-0.43571 0-1.0363 2.1375-1.3347 4.75-0.29837 2.6125-0.95851 7.45-1.467 10.75-0.5251 3.408-0.54844 6.4104-0.054 6.95 0.47873 0.5225 0.87044 2.013 0.87044 3.3121 0 3.2095 3.0218 12.238 4.096 12.238 0.476 0 1.141-1.24 1.477-2.75zm-28.822-169.18c4.838-4.3768 5.2485-6.1888 1.8995-8.3832-1.293-0.847-3.085-3.087-3.982-4.977-0.8971-1.891-2.2019-3.903-2.8996-4.473-1.8779-1.533-11.861-4.301-12.992-3.602-1.2577 0.77729-0.0171 10.996 1.7498 14.413 1.3985 2.7044 9.8941 10.978 11.201 10.908 0.425-0.022 2.6846-1.771 5.0226-3.886zm-77.583 209.63c-0.82191-0.99034 0.51538-2.9539 5.6276-8.2631 3.6881-3.8302 8.1366-7.9788 9.8854-9.2191 4.6256-3.2803 5.3532-0.81458 0.92273 3.127-1.9814 1.7628-3.6025 3.659-3.6025 4.2138 0 1.0581-10.127 11.44-11.159 11.44-0.329 0-1.082-0.58-1.675-1.3z"/>
 </g>
 <g transform="translate(-33.365 -24.878)">
  <g stroke="#f00" stroke-linecap="round" stroke-width="6" fill="none">
   <path marker-end="url(#e)" d="m627.24 274.86h-192.5"/>
   <path marker-end="url(#d)" d="m627.24 508.86h-201.59"/>
   <path marker-end="url(#c)" d="m627.24 508.86h-201.59"/>
   <path marker-end="url(#b)" d="m639.37 954.86h-255.13"/>
   <path marker-end="url(#a)" d="m651.37 1440.9h-234.92"/>
  </g>
  <g font-family="Sans" fill="#000000">
   <text style="word-spacing:0px;letter-spacing:0px" xml:space="preserve" font-size="20px" y="294.85715" x="651.42859" line-height="125%"><tspan font-size="70px" y="294.85715" x="651.42859" fill="#000000">Dendrites</tspan></text>
   <text style="word-spacing:0px;letter-spacing:0px" line-height="125%" font-size="20px" y="526.85718" x="651.42859" xml:space="preserve"><tspan font-size="70px" y="526.85718" x="651.42859" fill="#000000">Cell body</tspan></text>
   <text style="word-spacing:0px;letter-spacing:0px" xml:space="preserve" font-size="20px" y="982.85718" x="655.42859" line-height="125%"><tspan font-size="70px" y="982.85718" x="655.42859" fill="#000000">Axon</tspan></text>
   <text style="word-spacing:0px;letter-spacing:0px" line-height="100%" font-size="70px" y="1423.1429" x="670.78113" xml:space="preserve"><tspan line-height="100%" y="1423.1429" x="670.78113">Nerve</tspan><tspan line-height="100%" y="1493.1429" x="670.78113">ending</tspan></text>
  </g>
 </g>
</svg>
